<svg xmlns="http://www.w3.org/2000/svg" xmlns:xlink="http://www.w3.org/1999/xlink" width="500" zoomAndPan="magnify" viewBox="0 0 375 374.999991" height="500" preserveAspectRatio="xMidYMid meet" version="1.0"><defs><g/><clipPath id="5ecef06a52"><path d="M 99.265625 80.25 L 275.515625 80.25 L 275.515625 252 L 99.265625 252 Z M 99.265625 80.25 " clip-rule="nonzero"/></clipPath><clipPath id="d48cfd0fee"><path d="M 115.148438 89.070312 L 268.898438 89.070312 L 268.898438 242.820312 L 115.148438 242.820312 Z M 115.148438 89.070312 " clip-rule="nonzero"/></clipPath></defs><rect x="-37.5" width="450" fill="#ffffff" y="-37.499999" height="449.999989" fill-opacity="1"/><rect x="-37.5" width="450" fill="#0f172a" y="-37.499999" height="449.999989" fill-opacity="1"/><g clip-path="url(#5ecef06a52)"><path fill="#bef264" d="M 275.554688 172.210938 C 275.554688 171.539062 275.472656 170.871094 275.464844 170.199219 C 275.457031 169.53125 275.5 168.851562 275.480469 168.183594 C 275.464844 167.511719 275.449219 166.835938 275.425781 166.167969 C 275.402344 165.492188 275.292969 164.824219 275.261719 164.160156 C 275.230469 163.492188 275.140625 162.816406 275.09375 162.152344 C 275.050781 161.476562 275.039062 160.804688 274.984375 160.136719 C 274.929688 159.464844 274.820312 158.800781 274.761719 158.132812 C 274.699219 157.460938 274.808594 156.773438 274.738281 156.109375 C 274.664062 155.441406 274.535156 154.773438 274.453125 154.113281 C 274.371094 153.445312 274.316406 152.769531 274.226562 152.109375 C 274.132812 151.4375 273.996094 150.78125 273.894531 150.121094 C 273.792969 149.457031 273.640625 148.796875 273.527344 148.140625 C 273.414062 147.476562 273.339844 146.804688 273.21875 146.148438 C 273.09375 145.492188 273.019531 144.8125 272.882812 144.160156 C 272.742188 143.5 272.410156 142.886719 272.261719 142.234375 C 272.113281 141.578125 272.015625 140.910156 271.863281 140.261719 C 271.707031 139.613281 271.664062 138.921875 271.5 138.273438 C 271.328125 137.621094 271.019531 137.007812 270.835938 136.367188 C 270.652344 135.71875 270.554688 135.050781 270.355469 134.410156 C 270.15625 133.769531 269.84375 133.160156 269.636719 132.523438 C 269.429688 131.886719 269.296875 131.21875 269.074219 130.589844 C 268.847656 129.953125 268.503906 129.363281 268.265625 128.738281 C 268.027344 128.105469 267.929688 127.425781 267.675781 126.804688 C 267.425781 126.179688 267.144531 125.566406 266.878906 124.953125 C 266.613281 124.34375 266.285156 123.746094 266.007812 123.136719 C 265.726562 122.527344 265.535156 121.871094 265.246094 121.273438 C 264.953125 120.671875 264.527344 120.125 264.21875 119.535156 C 263.910156 118.933594 263.664062 118.304688 263.34375 117.71875 C 263.019531 117.125 262.617188 116.582031 262.277344 116.007812 C 261.9375 115.429688 261.566406 114.867188 261.214844 114.296875 C 260.859375 113.726562 260.550781 113.128906 260.183594 112.570312 C 259.816406 112.011719 259.449219 111.445312 259.0625 110.894531 C 258.679688 110.347656 258.375 109.738281 257.972656 109.199219 C 257.574219 108.660156 257.136719 108.140625 256.726562 107.613281 C 256.3125 107.085938 255.875 106.570312 255.449219 106.054688 C 255.019531 105.535156 254.625 104.988281 254.183594 104.484375 C 253.742188 103.976562 253.148438 103.605469 252.691406 103.117188 C 252.234375 102.625 251.894531 102.019531 251.425781 101.539062 C 250.957031 101.0625 250.4375 100.625 249.953125 100.164062 C 249.46875 99.703125 248.960938 99.257812 248.464844 98.808594 C 247.964844 98.359375 247.476562 97.898438 246.960938 97.464844 C 246.445312 97.035156 245.929688 96.605469 245.40625 96.1875 C 244.878906 95.773438 244.292969 95.4375 243.753906 95.039062 C 243.214844 94.636719 242.75 94.136719 242.203125 93.746094 C 241.65625 93.363281 241.082031 93.003906 240.519531 92.632812 C 239.960938 92.265625 239.355469 91.960938 238.785156 91.605469 C 238.214844 91.25 237.644531 90.898438 237.0625 90.5625 C 236.476562 90.230469 235.84375 89.992188 235.253906 89.671875 C 234.664062 89.355469 234.097656 88.992188 233.5 88.691406 C 232.898438 88.386719 232.292969 88.105469 231.683594 87.820312 C 231.070312 87.535156 230.480469 87.21875 229.867188 86.949219 C 229.25 86.683594 228.617188 86.460938 227.992188 86.210938 C 227.371094 85.964844 226.746094 85.722656 226.113281 85.488281 C 225.484375 85.257812 224.878906 84.976562 224.234375 84.757812 C 223.605469 84.542969 222.972656 84.316406 222.324219 84.117188 C 221.6875 83.917969 221.03125 83.761719 220.382812 83.578125 C 219.734375 83.394531 219.058594 83.339844 218.40625 83.171875 C 217.757812 83.003906 217.144531 82.695312 216.488281 82.542969 C 215.835938 82.390625 215.15625 82.367188 214.496094 82.230469 C 213.84375 82.097656 213.179688 81.996094 212.515625 81.878906 C 211.859375 81.757812 211.222656 81.496094 210.558594 81.390625 C 209.890625 81.285156 209.234375 81.175781 208.566406 81.082031 C 207.902344 80.992188 207.222656 81.015625 206.554688 80.9375 C 205.882812 80.859375 205.230469 80.726562 204.558594 80.664062 C 203.890625 80.601562 203.21875 80.59375 202.542969 80.546875 C 201.878906 80.496094 201.214844 80.378906 200.539062 80.34375 C 199.867188 80.304688 199.195312 80.34375 198.523438 80.320312 C 197.851562 80.300781 197.183594 80.367188 196.511719 80.355469 C 195.835938 80.34375 195.171875 80.289062 194.5 80.289062 C 193.824219 80.289062 193.160156 80.238281 192.484375 80.257812 C 191.816406 80.269531 191.148438 80.347656 190.472656 80.371094 C 189.800781 80.394531 189.140625 80.453125 188.464844 80.488281 C 187.800781 80.527344 187.121094 80.4375 186.449219 80.484375 C 185.785156 80.535156 185.117188 80.671875 184.449219 80.730469 C 183.777344 80.789062 183.125 80.941406 182.453125 81.011719 C 181.785156 81.082031 181.109375 81.050781 180.441406 81.128906 C 179.769531 81.207031 179.117188 81.347656 178.449219 81.4375 C 177.777344 81.527344 177.105469 81.496094 176.433594 81.59375 C 175.773438 81.695312 175.132812 81.9375 174.46875 82.046875 C 173.808594 82.15625 173.140625 82.246094 172.476562 82.359375 C 171.8125 82.472656 171.136719 82.476562 170.472656 82.605469 C 169.8125 82.726562 169.167969 82.933594 168.507812 83.070312 C 167.851562 83.199219 167.179688 83.277344 166.519531 83.421875 C 165.867188 83.585938 165.230469 83.832031 164.574219 84.011719 C 163.925781 84.1875 163.269531 84.367188 162.613281 84.550781 C 161.957031 84.734375 161.320312 84.941406 160.667969 85.132812 C 160.015625 85.324219 159.34375 85.425781 158.695312 85.625 C 158.046875 85.824219 157.433594 86.121094 156.785156 86.328125 C 156.140625 86.53125 155.476562 86.6875 154.835938 86.902344 C 154.195312 87.117188 153.535156 87.28125 152.894531 87.503906 C 152.253906 87.722656 151.640625 88.019531 151.003906 88.25 C 150.367188 88.476562 149.753906 88.769531 149.117188 89.003906 C 148.484375 89.242188 147.800781 89.347656 147.167969 89.59375 C 146.539062 89.835938 145.941406 90.179688 145.316406 90.4375 C 144.6875 90.691406 144.027344 90.859375 143.402344 91.121094 C 142.777344 91.386719 142.1875 91.722656 141.566406 91.996094 C 140.945312 92.269531 140.332031 92.554688 139.71875 92.835938 C 139.101562 93.117188 138.453125 93.332031 137.84375 93.625 C 137.230469 93.917969 136.671875 94.316406 136.066406 94.621094 C 135.464844 94.925781 134.878906 95.269531 134.28125 95.585938 C 133.679688 95.898438 133.085938 96.222656 132.492188 96.546875 C 131.898438 96.875 131.292969 97.179688 130.707031 97.519531 C 130.121094 97.859375 129.480469 98.101562 128.898438 98.453125 C 128.320312 98.804688 127.800781 99.253906 127.230469 99.621094 C 126.660156 99.988281 126.046875 100.292969 125.488281 100.671875 C 124.925781 101.050781 124.453125 101.5625 123.902344 101.949219 C 123.347656 102.339844 122.707031 102.609375 122.167969 103.019531 C 121.628906 103.425781 121.125 103.882812 120.59375 104.304688 C 120.0625 104.722656 119.597656 105.226562 119.078125 105.660156 C 118.558594 106.09375 118.011719 106.496094 117.507812 106.945312 C 117 107.398438 116.527344 107.878906 116.039062 108.34375 C 115.546875 108.808594 114.988281 109.210938 114.515625 109.691406 C 114.039062 110.175781 113.546875 110.648438 113.089844 111.140625 C 112.628906 111.640625 112.242188 112.203125 111.800781 112.714844 C 111.359375 113.222656 110.871094 113.699219 110.445312 114.226562 C 110.019531 114.753906 109.699219 115.359375 109.292969 115.90625 C 108.890625 116.453125 108.464844 116.972656 108.082031 117.535156 C 107.699219 118.09375 107.382812 118.691406 107.023438 119.265625 C 106.664062 119.835938 106.261719 120.382812 105.925781 120.972656 C 105.589844 121.558594 105.296875 122.167969 104.988281 122.769531 C 104.675781 123.375 104.292969 123.9375 104.007812 124.554688 C 103.722656 125.171875 103.425781 125.78125 103.167969 126.40625 C 102.910156 127.035156 102.777344 127.707031 102.542969 128.347656 C 102.304688 128.988281 101.988281 129.585938 101.777344 130.234375 C 101.574219 130.875 101.511719 131.5625 101.332031 132.222656 C 101.160156 132.871094 100.964844 133.519531 100.816406 134.183594 C 100.664062 134.851562 100.503906 135.496094 100.382812 136.167969 C 100.261719 136.84375 100.027344 137.480469 99.929688 138.15625 C 99.832031 138.832031 99.789062 139.503906 99.71875 140.179688 C 99.65625 140.847656 99.589844 141.519531 99.546875 142.1875 C 99.496094 142.859375 99.558594 143.535156 99.523438 144.207031 C 99.484375 144.875 99.5 145.550781 99.476562 146.222656 C 99.453125 146.890625 99.398438 147.5625 99.386719 148.234375 C 99.375 148.90625 99.375 149.578125 99.371094 150.25 C 99.371094 150.921875 99.304688 151.59375 99.3125 152.269531 C 99.320312 152.941406 99.335938 153.609375 99.359375 154.285156 C 99.378906 154.953125 99.480469 155.625 99.511719 156.296875 C 99.542969 156.964844 99.574219 157.636719 99.617188 158.308594 C 99.65625 158.980469 99.648438 159.652344 99.695312 160.320312 C 99.75 160.992188 99.742188 161.664062 99.808594 162.335938 C 99.867188 163.003906 99.902344 163.675781 99.976562 164.34375 C 100.046875 165.007812 100.21875 165.664062 100.300781 166.335938 C 100.382812 167 100.472656 167.664062 100.566406 168.335938 C 100.660156 169.003906 100.832031 169.652344 100.933594 170.320312 C 101.035156 170.984375 101 171.671875 101.109375 172.332031 C 101.21875 172.992188 101.382812 173.648438 101.503906 174.3125 C 101.628906 174.972656 101.710938 175.640625 101.839844 176.300781 C 101.972656 176.957031 102.222656 177.59375 102.363281 178.25 C 102.5 178.90625 102.542969 179.589844 102.691406 180.242188 C 102.84375 180.894531 103.003906 181.546875 103.167969 182.203125 C 103.332031 182.855469 103.644531 183.46875 103.816406 184.117188 C 103.988281 184.765625 104.066406 185.4375 104.246094 186.085938 C 104.425781 186.738281 104.554688 187.398438 104.746094 188.042969 C 104.9375 188.6875 105.285156 189.285156 105.484375 189.925781 C 105.683594 190.566406 105.820312 191.226562 106.03125 191.867188 C 106.246094 192.507812 106.5 193.125 106.722656 193.761719 C 106.941406 194.398438 107.074219 195.0625 107.304688 195.691406 C 107.539062 196.320312 107.84375 196.925781 108.085938 197.554688 C 108.328125 198.183594 108.539062 198.820312 108.789062 199.445312 C 109.039062 200.070312 109.382812 200.652344 109.644531 201.273438 C 109.90625 201.894531 110.148438 202.519531 110.421875 203.132812 C 110.695312 203.75 110.972656 204.359375 111.253906 204.972656 C 111.535156 205.582031 111.789062 206.203125 112.082031 206.808594 C 112.375 207.414062 112.679688 208.011719 112.980469 208.613281 C 113.28125 209.210938 113.640625 209.785156 113.957031 210.375 C 114.269531 210.972656 114.460938 211.628906 114.785156 212.21875 C 115.109375 212.804688 115.421875 213.40625 115.753906 213.984375 C 116.089844 214.566406 116.535156 215.085938 116.882812 215.664062 C 117.230469 216.238281 117.464844 216.882812 117.820312 217.449219 C 118.175781 218.015625 118.617188 218.535156 118.984375 219.097656 C 119.351562 219.664062 119.699219 220.242188 120.074219 220.792969 C 120.449219 221.34375 120.855469 221.886719 121.246094 222.433594 C 121.636719 222.980469 122.089844 223.484375 122.492188 224.023438 C 122.890625 224.5625 123.328125 225.070312 123.742188 225.601562 C 124.152344 226.132812 124.539062 226.683594 124.960938 227.203125 C 125.386719 227.726562 125.800781 228.246094 126.238281 228.761719 C 126.675781 229.273438 127.074219 229.816406 127.519531 230.316406 C 127.96875 230.820312 128.457031 231.285156 128.914062 231.773438 C 129.371094 232.265625 129.859375 232.730469 130.328125 233.207031 C 130.796875 233.683594 131.222656 234.214844 131.703125 234.679688 C 132.1875 235.148438 132.660156 235.628906 133.152344 236.082031 C 133.648438 236.535156 134.195312 236.929688 134.699219 237.371094 C 135.25 237.761719 135.816406 238.128906 136.382812 238.496094 C 136.949219 238.863281 137.445312 239.351562 138.023438 239.699219 C 138.601562 240.042969 139.277344 240.230469 139.867188 240.550781 C 140.464844 240.871094 141.066406 241.175781 141.667969 241.472656 C 142.277344 241.769531 142.863281 242.105469 143.476562 242.382812 C 144.089844 242.660156 144.6875 242.984375 145.3125 243.246094 C 145.9375 243.507812 146.546875 243.8125 147.179688 244.046875 C 147.8125 244.285156 148.496094 244.371094 149.140625 244.589844 C 149.777344 244.8125 150.375 245.160156 151.015625 245.363281 C 151.660156 245.566406 152.347656 245.632812 152.996094 245.820312 C 153.644531 246.007812 154.296875 246.175781 154.953125 246.351562 C 155.605469 246.527344 156.230469 246.808594 156.882812 246.976562 C 157.535156 247.144531 158.191406 247.300781 158.855469 247.457031 C 159.511719 247.613281 160.191406 247.664062 160.855469 247.8125 C 161.515625 247.960938 162.144531 248.253906 162.800781 248.390625 C 163.460938 248.53125 164.160156 248.488281 164.820312 248.625 C 165.484375 248.757812 166.140625 248.921875 166.804688 249.054688 C 167.472656 249.183594 168.125 249.351562 168.789062 249.476562 C 169.457031 249.605469 170.117188 249.738281 170.78125 249.863281 C 171.445312 249.984375 172.109375 250.121094 172.769531 250.246094 C 173.433594 250.367188 174.109375 250.445312 174.769531 250.570312 C 175.433594 250.707031 176.109375 250.78125 176.777344 250.894531 C 177.449219 251.007812 178.113281 251.132812 178.785156 251.222656 C 179.460938 251.3125 180.125 251.4375 180.804688 251.507812 C 181.476562 251.574219 182.15625 251.640625 182.832031 251.691406 C 183.507812 251.738281 184.1875 251.789062 184.863281 251.816406 C 185.542969 251.84375 186.21875 251.816406 186.902344 251.828125 C 187.578125 251.835938 188.257812 251.773438 188.933594 251.761719 C 189.613281 251.746094 190.289062 251.78125 190.96875 251.746094 C 191.644531 251.714844 192.332031 251.8125 193.007812 251.761719 C 193.6875 251.707031 194.363281 251.640625 195.039062 251.570312 C 195.710938 251.503906 196.363281 251.238281 197.039062 251.152344 C 197.710938 251.0625 198.382812 251.007812 199.058594 250.902344 C 199.730469 250.796875 200.414062 250.769531 201.078125 250.640625 C 201.746094 250.515625 202.402344 250.328125 203.0625 250.183594 C 203.722656 250.042969 204.410156 249.984375 205.066406 249.820312 C 205.722656 249.65625 206.382812 249.472656 207.035156 249.296875 C 207.6875 249.121094 208.328125 248.886719 208.980469 248.695312 C 209.628906 248.503906 210.28125 248.300781 210.925781 248.09375 C 211.570312 247.886719 212.207031 247.648438 212.847656 247.425781 C 213.488281 247.199219 214.109375 246.921875 214.742188 246.6875 C 215.378906 246.445312 216.042969 246.285156 216.671875 246.03125 C 217.300781 245.78125 217.945312 245.554688 218.566406 245.285156 C 219.191406 245.015625 219.789062 244.699219 220.40625 244.417969 C 221.023438 244.132812 221.597656 243.765625 222.210938 243.46875 C 222.824219 243.171875 223.4375 242.890625 224.039062 242.574219 C 224.644531 242.265625 225.292969 242.042969 225.890625 241.71875 C 226.484375 241.390625 227.019531 240.960938 227.613281 240.625 C 228.199219 240.285156 228.777344 239.929688 229.359375 239.578125 C 229.941406 239.226562 230.582031 238.984375 231.160156 238.621094 C 231.730469 238.257812 232.234375 237.78125 232.796875 237.402344 C 233.359375 237.027344 233.972656 236.71875 234.527344 236.328125 C 235.082031 235.949219 235.570312 235.480469 236.121094 235.101562 C 236.667969 234.722656 237.316406 234.472656 237.863281 234.089844 C 238.410156 233.703125 238.941406 233.289062 239.484375 232.902344 C 240.03125 232.511719 240.515625 232.039062 241.054688 231.648438 C 241.597656 231.253906 242.15625 230.878906 242.691406 230.484375 C 243.234375 230.089844 243.820312 229.753906 244.351562 229.351562 C 244.890625 228.949219 245.351562 228.457031 245.882812 228.046875 C 246.414062 227.640625 246.984375 227.28125 247.507812 226.863281 C 248.03125 226.445312 248.519531 225.980469 249.039062 225.5625 C 249.558594 225.140625 250.128906 224.777344 250.644531 224.347656 C 251.15625 223.917969 251.597656 223.40625 252.105469 222.96875 C 252.609375 222.53125 253.183594 222.164062 253.679688 221.71875 C 254.179688 221.269531 254.683594 220.828125 255.175781 220.371094 C 255.664062 219.914062 256.160156 219.460938 256.640625 218.996094 C 257.121094 218.527344 257.53125 217.992188 258 217.515625 C 258.46875 217.039062 258.988281 216.605469 259.445312 216.121094 C 259.90625 215.628906 260.394531 215.167969 260.839844 214.671875 C 261.285156 214.171875 261.613281 213.5625 262.042969 213.054688 C 262.476562 212.542969 262.871094 212.003906 263.289062 211.480469 C 263.707031 210.957031 264.125 210.4375 264.527344 209.902344 C 264.925781 209.367188 265.417969 208.894531 265.800781 208.347656 C 266.183594 207.800781 266.582031 207.261719 266.949219 206.699219 C 267.316406 206.140625 267.546875 205.488281 267.894531 204.917969 C 268.242188 204.347656 268.609375 203.789062 268.933594 203.203125 C 269.261719 202.621094 269.699219 202.09375 270 201.492188 C 270.300781 200.894531 270.4375 200.21875 270.71875 199.613281 C 271 199.003906 271.34375 198.429688 271.601562 197.808594 C 271.859375 197.1875 272.03125 196.542969 272.265625 195.914062 C 272.5 195.285156 272.695312 194.652344 272.902344 194.011719 C 273.109375 193.371094 273.402344 192.769531 273.585938 192.121094 C 273.769531 191.480469 274.015625 190.851562 274.175781 190.199219 C 274.332031 189.554688 274.320312 188.863281 274.453125 188.203125 C 274.589844 187.539062 274.855469 186.921875 274.964844 186.253906 C 275.070312 185.597656 275.070312 184.925781 275.152344 184.253906 C 275.234375 183.597656 275.335938 182.933594 275.398438 182.261719 C 275.457031 181.59375 275.480469 180.933594 275.519531 180.257812 C 275.554688 179.597656 275.636719 178.929688 275.652344 178.253906 C 275.667969 177.59375 275.597656 176.921875 275.589844 176.246094 C 275.582031 175.585938 275.65625 174.910156 275.628906 174.234375 C 275.601562 173.570312 275.585938 172.902344 275.539062 172.226562 Z M 275.554688 172.210938 " fill-opacity="1" fill-rule="nonzero"/></g><g clip-path="url(#d48cfd0fee)"><path stroke-linecap="butt" transform="matrix(0.75, 0, 0, 0.75, 115.149496, 89.072133)" fill="none" stroke-linejoin="miter" d="M -0.00141152 -0.00242673 L 205.279852 -0.00242673 L 205.279852 205.278837 L -0.00141152 205.278837 Z M -0.00141152 -0.00242673 " stroke="#0f172a" stroke-width="16" stroke-opacity="1" stroke-miterlimit="4"/></g><path stroke-linecap="butt" transform="matrix(1.003404, 0, 0, 1.003404, 157.523769, 149.065581)" fill="none" stroke-linejoin="miter" d="M 6.909743 24.522822 L 6.909743 75.999946 L 40.144274 75.999946 L 41.413392 66.388132 L 19.094829 66.388132 L 19.094829 24.522822 Z M 59.192718 64.904899 L 74.258623 64.904899 L 76.97983 75.999946 L 90.017483 75.999946 L 74.258623 24.522822 L 59.4808 24.522822 L 43.741405 75.999946 L 56.471512 75.999946 Z M 72.265408 56.056113 L 61.115859 56.056113 L 66.69842 33.297641 Z M 72.265408 56.056113 " stroke="#0f172a" stroke-width="2.785391" stroke-opacity="1" stroke-miterlimit="4"/><g fill="#ffffff" fill-opacity="1"><g transform="translate(108.815102, 277.128555)"><g><path d="M 2.046875 0 L 2.046875 -15.25 L 5.65625 -15.25 L 5.65625 -2.84375 L 12.265625 -2.84375 L 11.890625 0 Z M 2.046875 0 "/></g></g></g><g fill="#ffffff" fill-opacity="1"><g transform="translate(122.012863, 277.128555)"><g><path d="M 5.015625 -11.6875 L 5.015625 -3.6875 C 5.015625 -3.125 5.117188 -2.734375 5.328125 -2.515625 C 5.535156 -2.304688 5.828125 -2.203125 6.203125 -2.203125 C 6.566406 -2.203125 6.925781 -2.3125 7.28125 -2.53125 C 7.644531 -2.757812 7.945312 -3.070312 8.1875 -3.46875 L 8.1875 -11.6875 L 11.65625 -11.6875 L 11.65625 0 L 8.625 0 L 8.46875 -1.359375 C 8.070312 -0.785156 7.550781 -0.351562 6.90625 -0.0625 C 6.257812 0.226562 5.585938 0.375 4.890625 0.375 C 3.753906 0.375 2.910156 0.046875 2.359375 -0.609375 C 1.816406 -1.265625 1.546875 -2.144531 1.546875 -3.25 L 1.546875 -11.6875 Z M 5.015625 -11.6875 "/></g></g></g><g fill="#ffffff" fill-opacity="1"><g transform="translate(135.210623, 277.128555)"><g><path d="M 7.734375 -2.359375 C 8.210938 -2.359375 8.660156 -2.453125 9.078125 -2.640625 C 9.503906 -2.828125 9.925781 -3.066406 10.34375 -3.359375 L 11.890625 -1.171875 C 11.378906 -0.722656 10.753906 -0.351562 10.015625 -0.0625 C 9.273438 0.226562 8.453125 0.375 7.546875 0.375 C 6.296875 0.375 5.21875 0.117188 4.3125 -0.390625 C 3.40625 -0.910156 2.707031 -1.628906 2.21875 -2.546875 C 1.738281 -3.472656 1.5 -4.546875 1.5 -5.765625 C 1.5 -6.984375 1.742188 -8.066406 2.234375 -9.015625 C 2.734375 -9.960938 3.441406 -10.707031 4.359375 -11.25 C 5.273438 -11.789062 6.359375 -12.0625 7.609375 -12.0625 C 8.492188 -12.0625 9.28125 -11.9375 9.96875 -11.6875 C 10.664062 -11.445312 11.304688 -11.085938 11.890625 -10.609375 L 10.390625 -8.515625 C 9.992188 -8.796875 9.570312 -9.007812 9.125 -9.15625 C 8.6875 -9.3125 8.226562 -9.390625 7.75 -9.390625 C 6.96875 -9.390625 6.335938 -9.113281 5.859375 -8.5625 C 5.378906 -8.007812 5.140625 -7.078125 5.140625 -5.765625 C 5.140625 -4.910156 5.25 -4.234375 5.46875 -3.734375 C 5.695312 -3.234375 6.007812 -2.878906 6.40625 -2.671875 C 6.800781 -2.460938 7.242188 -2.359375 7.734375 -2.359375 Z M 7.734375 -2.359375 "/></g></g></g><g fill="#ffffff" fill-opacity="1"><g transform="translate(148.408383, 277.128555)"><g><path d="M 11.375 -3.359375 C 11.375 -2.921875 11.429688 -2.601562 11.546875 -2.40625 C 11.671875 -2.207031 11.867188 -2.054688 12.140625 -1.953125 L 11.421875 0.328125 C 10.734375 0.265625 10.148438 0.113281 9.671875 -0.125 C 9.203125 -0.363281 8.832031 -0.722656 8.5625 -1.203125 C 8.113281 -0.671875 7.539062 -0.273438 6.84375 -0.015625 C 6.15625 0.242188 5.445312 0.375 4.71875 0.375 C 3.519531 0.375 2.5625 0.03125 1.84375 -0.65625 C 1.125 -1.34375 0.765625 -2.222656 0.765625 -3.296875 C 0.765625 -4.566406 1.257812 -5.546875 2.25 -6.234375 C 3.25 -6.921875 4.648438 -7.265625 6.453125 -7.265625 L 8.03125 -7.265625 L 8.03125 -7.71875 C 8.03125 -8.320312 7.832031 -8.769531 7.4375 -9.0625 C 7.050781 -9.351562 6.476562 -9.5 5.71875 -9.5 C 5.34375 -9.5 4.863281 -9.445312 4.28125 -9.34375 C 3.695312 -9.238281 3.109375 -9.085938 2.515625 -8.890625 L 1.71875 -11.203125 C 2.46875 -11.484375 3.25 -11.695312 4.0625 -11.84375 C 4.882812 -11.988281 5.617188 -12.0625 6.265625 -12.0625 C 8.003906 -12.0625 9.289062 -11.707031 10.125 -11 C 10.957031 -10.289062 11.375 -9.269531 11.375 -7.9375 Z M 5.921875 -2.109375 C 6.296875 -2.109375 6.6875 -2.21875 7.09375 -2.4375 C 7.507812 -2.664062 7.820312 -2.988281 8.03125 -3.40625 L 8.03125 -5.296875 L 7.171875 -5.296875 C 6.203125 -5.296875 5.488281 -5.144531 5.03125 -4.84375 C 4.582031 -4.550781 4.359375 -4.117188 4.359375 -3.546875 C 4.359375 -3.097656 4.492188 -2.742188 4.765625 -2.484375 C 5.046875 -2.234375 5.429688 -2.109375 5.921875 -2.109375 Z M 5.921875 -2.109375 "/></g></g></g><g fill="#ffffff" fill-opacity="1"><g transform="translate(161.606144, 277.128555)"><g><path d="M 6.21875 -2.109375 C 6.800781 -2.109375 7.269531 -2.195312 7.625 -2.375 C 7.976562 -2.5625 8.15625 -2.84375 8.15625 -3.21875 C 8.15625 -3.46875 8.085938 -3.675781 7.953125 -3.84375 C 7.816406 -4.007812 7.550781 -4.164062 7.15625 -4.3125 C 6.757812 -4.46875 6.171875 -4.65625 5.390625 -4.875 C 4.679688 -5.0625 4.050781 -5.300781 3.5 -5.59375 C 2.957031 -5.882812 2.53125 -6.257812 2.21875 -6.71875 C 1.914062 -7.1875 1.765625 -7.765625 1.765625 -8.453125 C 1.765625 -9.148438 1.957031 -9.769531 2.34375 -10.3125 C 2.738281 -10.851562 3.3125 -11.28125 4.0625 -11.59375 C 4.820312 -11.90625 5.75 -12.0625 6.84375 -12.0625 C 7.882812 -12.0625 8.789062 -11.925781 9.5625 -11.65625 C 10.332031 -11.394531 11.003906 -11.054688 11.578125 -10.640625 L 10.1875 -8.609375 C 9.695312 -8.898438 9.171875 -9.132812 8.609375 -9.3125 C 8.054688 -9.5 7.5 -9.59375 6.9375 -9.59375 C 6.375 -9.59375 5.953125 -9.515625 5.671875 -9.359375 C 5.398438 -9.210938 5.265625 -8.988281 5.265625 -8.6875 C 5.265625 -8.488281 5.335938 -8.316406 5.484375 -8.171875 C 5.628906 -8.035156 5.898438 -7.890625 6.296875 -7.734375 C 6.691406 -7.585938 7.269531 -7.40625 8.03125 -7.1875 C 8.78125 -6.96875 9.4375 -6.71875 10 -6.4375 C 10.5625 -6.164062 10.992188 -5.796875 11.296875 -5.328125 C 11.609375 -4.859375 11.765625 -4.242188 11.765625 -3.484375 C 11.765625 -2.640625 11.507812 -1.925781 11 -1.34375 C 10.5 -0.769531 9.832031 -0.335938 9 -0.046875 C 8.164062 0.234375 7.25 0.375 6.25 0.375 C 5.113281 0.375 4.113281 0.210938 3.25 -0.109375 C 2.382812 -0.429688 1.648438 -0.859375 1.046875 -1.390625 L 2.796875 -3.34375 C 3.242188 -2.988281 3.753906 -2.691406 4.328125 -2.453125 C 4.910156 -2.222656 5.539062 -2.109375 6.21875 -2.109375 Z M 6.21875 -2.109375 "/></g></g></g><g fill="#ffffff" fill-opacity="1"><g transform="translate(174.803904, 277.128555)"><g/></g></g><g fill="#ffffff" fill-opacity="1"><g transform="translate(188.001664, 277.128555)"><g><path d="M 8.796875 -3.28125 L 4.328125 -3.28125 L 3.53125 0 L -0.234375 0 L 4.421875 -15.25 L 8.796875 -15.25 L 13.46875 0 L 9.609375 0 Z M 4.90625 -5.90625 L 8.203125 -5.90625 L 6.5625 -12.65625 Z M 4.90625 -5.90625 "/></g></g></g><g fill="#ffffff" fill-opacity="1"><g transform="translate(201.199425, 277.128555)"><g><path d="M 8.015625 -12.0625 C 9.023438 -12.0625 9.84375 -11.804688 10.46875 -11.296875 C 11.09375 -10.796875 11.550781 -10.082031 11.84375 -9.15625 C 12.132812 -8.238281 12.28125 -7.144531 12.28125 -5.875 C 12.28125 -4.664062 12.101562 -3.59375 11.75 -2.65625 C 11.394531 -1.71875 10.882812 -0.976562 10.21875 -0.4375 C 9.550781 0.101562 8.738281 0.375 7.78125 0.375 C 6.644531 0.375 5.722656 -0.03125 5.015625 -0.84375 L 5.015625 4.515625 L 1.546875 4.875 L 1.546875 -11.6875 L 4.625 -11.6875 L 4.78125 -10.375 C 5.25 -10.976562 5.765625 -11.410156 6.328125 -11.671875 C 6.898438 -11.929688 7.460938 -12.0625 8.015625 -12.0625 Z M 6.9375 -9.5 C 6.53125 -9.5 6.171875 -9.378906 5.859375 -9.140625 C 5.554688 -8.898438 5.273438 -8.570312 5.015625 -8.15625 L 5.015625 -3.21875 C 5.253906 -2.863281 5.507812 -2.597656 5.78125 -2.421875 C 6.050781 -2.253906 6.367188 -2.171875 6.734375 -2.171875 C 7.347656 -2.171875 7.828125 -2.453125 8.171875 -3.015625 C 8.515625 -3.578125 8.6875 -4.515625 8.6875 -5.828125 C 8.6875 -6.796875 8.613281 -7.546875 8.46875 -8.078125 C 8.332031 -8.609375 8.132812 -8.976562 7.875 -9.1875 C 7.613281 -9.394531 7.300781 -9.5 6.9375 -9.5 Z M 6.9375 -9.5 "/></g></g></g><g fill="#ffffff" fill-opacity="1"><g transform="translate(214.397185, 277.128555)"><g><path d="M 1.65625 0 L 1.65625 -2.328125 L 3.1875 -2.328125 L 3.1875 -9.375 L 1.65625 -9.375 L 1.65625 -11.6875 L 5.84375 -11.6875 L 6.484375 -9.046875 C 6.898438 -10.054688 7.429688 -10.804688 8.078125 -11.296875 C 8.722656 -11.785156 9.515625 -12.03125 10.453125 -12.03125 C 10.859375 -12.03125 11.210938 -12 11.515625 -11.9375 C 11.828125 -11.875 12.117188 -11.789062 12.390625 -11.6875 L 11.328125 -8.8125 C 11.117188 -8.875 10.90625 -8.914062 10.6875 -8.9375 C 10.476562 -8.96875 10.242188 -8.984375 9.984375 -8.984375 C 9.222656 -8.984375 8.550781 -8.671875 7.96875 -8.046875 C 7.394531 -7.421875 6.960938 -6.628906 6.671875 -5.671875 L 6.671875 -2.328125 L 8.96875 -2.328125 L 8.96875 0 Z M 9.5625 -6.796875 L 9.5625 -10.203125 L 10.078125 -11.6875 L 12.390625 -11.6875 L 11.734375 -6.796875 Z M 9.5625 -6.796875 "/></g></g></g><g fill="#ffffff" fill-opacity="1"><g transform="translate(227.594946, 277.128555)"><g><path d="M 8.671875 -11.6875 L 8.671875 -2.375 L 11.65625 -2.375 L 11.65625 0 L 1.890625 0 L 1.890625 -2.375 L 5.203125 -2.375 L 5.203125 -9.3125 L 2 -9.3125 L 2 -11.6875 Z M 6.578125 -17.796875 C 7.179688 -17.796875 7.671875 -17.609375 8.046875 -17.234375 C 8.429688 -16.859375 8.625 -16.394531 8.625 -15.84375 C 8.625 -15.28125 8.429688 -14.8125 8.046875 -14.4375 C 7.671875 -14.0625 7.179688 -13.875 6.578125 -13.875 C 5.972656 -13.875 5.476562 -14.0625 5.09375 -14.4375 C 4.707031 -14.8125 4.515625 -15.28125 4.515625 -15.84375 C 4.515625 -16.394531 4.707031 -16.859375 5.09375 -17.234375 C 5.476562 -17.609375 5.972656 -17.796875 6.578125 -17.796875 Z M 6.578125 -17.796875 "/></g></g></g><g fill="#ffffff" fill-opacity="1"><g transform="translate(240.792706, 277.128555)"><g><path d="M 11.90625 -13.546875 L 12.734375 -11 C 12.316406 -10.84375 11.832031 -10.722656 11.28125 -10.640625 C 10.726562 -10.566406 10.085938 -10.53125 9.359375 -10.53125 C 10.085938 -10.21875 10.644531 -9.828125 11.03125 -9.359375 C 11.414062 -8.898438 11.609375 -8.289062 11.609375 -7.53125 C 11.609375 -6.78125 11.40625 -6.109375 11 -5.515625 C 10.601562 -4.921875 10.035156 -4.457031 9.296875 -4.125 C 8.554688 -3.789062 7.679688 -3.625 6.671875 -3.625 C 6.421875 -3.625 6.179688 -3.632812 5.953125 -3.65625 C 5.734375 -3.675781 5.519531 -3.707031 5.3125 -3.75 C 5.1875 -3.6875 5.085938 -3.59375 5.015625 -3.46875 C 4.953125 -3.34375 4.921875 -3.210938 4.921875 -3.078125 C 4.921875 -2.898438 4.992188 -2.734375 5.140625 -2.578125 C 5.296875 -2.429688 5.65625 -2.359375 6.21875 -2.359375 L 8.125 -2.359375 C 9.039062 -2.359375 9.828125 -2.210938 10.484375 -1.921875 C 11.148438 -1.628906 11.664062 -1.226562 12.03125 -0.71875 C 12.394531 -0.21875 12.578125 0.359375 12.578125 1.015625 C 12.578125 2.210938 12.050781 3.15625 11 3.84375 C 9.957031 4.53125 8.40625 4.875 6.34375 4.875 C 4.84375 4.875 3.679688 4.71875 2.859375 4.40625 C 2.046875 4.101562 1.476562 3.671875 1.15625 3.109375 C 0.84375 2.554688 0.6875 1.894531 0.6875 1.125 L 3.765625 1.125 C 3.765625 1.457031 3.832031 1.734375 3.96875 1.953125 C 4.101562 2.171875 4.363281 2.328125 4.75 2.421875 C 5.132812 2.523438 5.691406 2.578125 6.421875 2.578125 C 7.160156 2.578125 7.722656 2.519531 8.109375 2.40625 C 8.503906 2.289062 8.769531 2.128906 8.90625 1.921875 C 9.050781 1.722656 9.125 1.5 9.125 1.25 C 9.125 0.90625 8.988281 0.625 8.71875 0.40625 C 8.445312 0.195312 8.019531 0.09375 7.4375 0.09375 L 5.578125 0.09375 C 4.316406 0.09375 3.398438 -0.132812 2.828125 -0.59375 C 2.253906 -1.0625 1.96875 -1.609375 1.96875 -2.234375 C 1.96875 -2.660156 2.082031 -3.066406 2.3125 -3.453125 C 2.539062 -3.847656 2.863281 -4.175781 3.28125 -4.4375 C 2.539062 -4.832031 2.007812 -5.300781 1.6875 -5.84375 C 1.363281 -6.382812 1.203125 -7.03125 1.203125 -7.78125 C 1.203125 -8.664062 1.425781 -9.425781 1.875 -10.0625 C 2.320312 -10.695312 2.9375 -11.1875 3.71875 -11.53125 C 4.507812 -11.875 5.410156 -12.046875 6.421875 -12.046875 C 7.296875 -12.023438 8.054688 -12.082031 8.703125 -12.21875 C 9.347656 -12.363281 9.925781 -12.550781 10.4375 -12.78125 C 10.945312 -13.019531 11.4375 -13.273438 11.90625 -13.546875 Z M 6.515625 -9.796875 C 5.960938 -9.796875 5.523438 -9.617188 5.203125 -9.265625 C 4.878906 -8.921875 4.71875 -8.441406 4.71875 -7.828125 C 4.71875 -7.179688 4.878906 -6.6875 5.203125 -6.34375 C 5.535156 -6 5.972656 -5.828125 6.515625 -5.828125 C 7.085938 -5.828125 7.523438 -6 7.828125 -6.34375 C 8.140625 -6.6875 8.296875 -7.195312 8.296875 -7.875 C 8.296875 -8.53125 8.144531 -9.015625 7.84375 -9.328125 C 7.539062 -9.640625 7.097656 -9.796875 6.515625 -9.796875 Z M 6.515625 -9.796875 "/></g></g></g><g fill="#ffffff" fill-opacity="1"><g transform="translate(253.990466, 277.128555)"><g><path d="M 8.671875 -11.6875 L 8.671875 -2.375 L 11.65625 -2.375 L 11.65625 0 L 1.890625 0 L 1.890625 -2.375 L 5.203125 -2.375 L 5.203125 -9.3125 L 2 -9.3125 L 2 -11.6875 Z M 6.578125 -17.796875 C 7.179688 -17.796875 7.671875 -17.609375 8.046875 -17.234375 C 8.429688 -16.859375 8.625 -16.394531 8.625 -15.84375 C 8.625 -15.28125 8.429688 -14.8125 8.046875 -14.4375 C 7.671875 -14.0625 7.179688 -13.875 6.578125 -13.875 C 5.972656 -13.875 5.476562 -14.0625 5.09375 -14.4375 C 4.707031 -14.8125 4.515625 -15.28125 4.515625 -15.84375 C 4.515625 -16.394531 4.707031 -16.859375 5.09375 -17.234375 C 5.476562 -17.609375 5.972656 -17.796875 6.578125 -17.796875 Z M 6.578125 -17.796875 "/></g></g></g><g fill="#ffffff" fill-opacity="1"><g transform="translate(267.188227, 277.128555)"><g><path d="M 6.59375 -12.0625 C 7.800781 -12.0625 8.828125 -11.804688 9.671875 -11.296875 C 10.515625 -10.785156 11.160156 -10.066406 11.609375 -9.140625 C 12.054688 -8.210938 12.28125 -7.125 12.28125 -5.875 C 12.28125 -4.570312 12.050781 -3.453125 11.59375 -2.515625 C 11.144531 -1.585938 10.5 -0.875 9.65625 -0.375 C 8.8125 0.125 7.789062 0.375 6.59375 0.375 C 5.40625 0.375 4.390625 0.128906 3.546875 -0.359375 C 2.703125 -0.847656 2.050781 -1.554688 1.59375 -2.484375 C 1.144531 -3.421875 0.921875 -4.546875 0.921875 -5.859375 C 0.921875 -7.097656 1.144531 -8.179688 1.59375 -9.109375 C 2.050781 -10.035156 2.703125 -10.757812 3.546875 -11.28125 C 4.390625 -11.800781 5.40625 -12.0625 6.59375 -12.0625 Z M 6.59375 -9.5 C 5.882812 -9.5 5.359375 -9.207031 5.015625 -8.625 C 4.679688 -8.039062 4.515625 -7.117188 4.515625 -5.859375 C 4.515625 -4.566406 4.679688 -3.628906 5.015625 -3.046875 C 5.359375 -2.460938 5.882812 -2.171875 6.59375 -2.171875 C 7.3125 -2.171875 7.835938 -2.460938 8.171875 -3.046875 C 8.515625 -3.628906 8.6875 -4.570312 8.6875 -5.875 C 8.6875 -7.132812 8.515625 -8.050781 8.171875 -8.625 C 7.835938 -9.207031 7.3125 -9.5 6.59375 -9.5 Z M 6.59375 -9.5 "/></g></g></g><g fill="#ffffff" fill-opacity="1"><g transform="translate(159.134862, 299.703554)"><g><path d="M 3.75 -6.75 L 3.75 0 L 2.8125 0 L 2.8125 -6.75 L 0.4375 -6.75 L 0.4375 -7.578125 L 6.15625 -7.578125 L 6.0625 -6.75 Z M 3.75 -6.75 "/></g></g></g><g fill="#ffffff" fill-opacity="1"><g transform="translate(165.733742, 299.703554)"><g><path d="M 1.828125 -2.5625 C 1.847656 -2.113281 1.9375 -1.75 2.09375 -1.46875 C 2.25 -1.1875 2.453125 -0.976562 2.703125 -0.84375 C 2.953125 -0.707031 3.226562 -0.640625 3.53125 -0.640625 C 3.820312 -0.640625 4.085938 -0.679688 4.328125 -0.765625 C 4.566406 -0.859375 4.816406 -0.992188 5.078125 -1.171875 L 5.5 -0.5625 C 5.226562 -0.34375 4.921875 -0.171875 4.578125 -0.046875 C 4.234375 0.0664062 3.878906 0.125 3.515625 0.125 C 2.953125 0.125 2.472656 0 2.078125 -0.25 C 1.679688 -0.5 1.378906 -0.847656 1.171875 -1.296875 C 0.960938 -1.753906 0.859375 -2.285156 0.859375 -2.890625 C 0.859375 -3.472656 0.960938 -3.988281 1.171875 -4.4375 C 1.378906 -4.894531 1.671875 -5.253906 2.046875 -5.515625 C 2.429688 -5.773438 2.878906 -5.90625 3.390625 -5.90625 C 3.878906 -5.90625 4.300781 -5.789062 4.65625 -5.5625 C 5.007812 -5.332031 5.28125 -5.003906 5.46875 -4.578125 C 5.65625 -4.160156 5.75 -3.660156 5.75 -3.078125 C 5.75 -2.972656 5.742188 -2.878906 5.734375 -2.796875 C 5.734375 -2.710938 5.726562 -2.632812 5.71875 -2.5625 Z M 3.40625 -5.15625 C 2.976562 -5.15625 2.617188 -5 2.328125 -4.6875 C 2.035156 -4.382812 1.875 -3.914062 1.84375 -3.28125 L 4.859375 -3.28125 C 4.847656 -3.90625 4.710938 -4.375 4.453125 -4.6875 C 4.191406 -5 3.84375 -5.15625 3.40625 -5.15625 Z M 3.40625 -5.15625 "/></g></g></g><g fill="#ffffff" fill-opacity="1"><g transform="translate(172.332622, 299.703554)"><g><path d="M 3.71875 -0.671875 C 4.007812 -0.671875 4.28125 -0.71875 4.53125 -0.8125 C 4.78125 -0.90625 5.015625 -1.023438 5.234375 -1.171875 L 5.6875 -0.578125 C 5.425781 -0.359375 5.117188 -0.1875 4.765625 -0.0625 C 4.410156 0.0625 4.0625 0.125 3.71875 0.125 C 3.144531 0.125 2.65625 0.00390625 2.25 -0.234375 C 1.84375 -0.484375 1.53125 -0.832031 1.3125 -1.28125 C 1.101562 -1.738281 1 -2.269531 1 -2.875 C 1 -3.445312 1.109375 -3.960938 1.328125 -4.421875 C 1.546875 -4.890625 1.851562 -5.253906 2.25 -5.515625 C 2.65625 -5.773438 3.148438 -5.90625 3.734375 -5.90625 C 4.109375 -5.90625 4.457031 -5.847656 4.78125 -5.734375 C 5.101562 -5.628906 5.398438 -5.460938 5.671875 -5.234375 L 5.21875 -4.625 C 4.96875 -4.800781 4.71875 -4.929688 4.46875 -5.015625 C 4.226562 -5.097656 3.976562 -5.140625 3.71875 -5.140625 C 3.21875 -5.140625 2.804688 -4.953125 2.484375 -4.578125 C 2.160156 -4.203125 2 -3.632812 2 -2.875 C 2 -2.351562 2.070312 -1.929688 2.21875 -1.609375 C 2.375 -1.285156 2.582031 -1.046875 2.84375 -0.890625 C 3.101562 -0.742188 3.394531 -0.671875 3.71875 -0.671875 Z M 3.71875 -0.671875 "/></g></g></g><g fill="#ffffff" fill-opacity="1"><g transform="translate(178.931503, 299.703554)"><g><path d="M 1.109375 0 L 1.109375 -5.796875 L 1.890625 -5.796875 L 1.96875 -4.984375 C 2.195312 -5.285156 2.488281 -5.515625 2.84375 -5.671875 C 3.195312 -5.828125 3.539062 -5.90625 3.875 -5.90625 C 4.445312 -5.90625 4.859375 -5.753906 5.109375 -5.453125 C 5.367188 -5.160156 5.5 -4.742188 5.5 -4.203125 L 5.5 0 L 4.578125 0 L 4.578125 -3.53125 C 4.578125 -3.925781 4.554688 -4.242188 4.515625 -4.484375 C 4.472656 -4.722656 4.378906 -4.898438 4.234375 -5.015625 C 4.097656 -5.128906 3.882812 -5.1875 3.59375 -5.1875 C 3.363281 -5.1875 3.148438 -5.132812 2.953125 -5.03125 C 2.753906 -4.9375 2.578125 -4.8125 2.421875 -4.65625 C 2.265625 -4.507812 2.132812 -4.363281 2.03125 -4.21875 L 2.03125 0 Z M 1.109375 0 "/></g></g></g><g fill="#ffffff" fill-opacity="1"><g transform="translate(185.530383, 299.703554)"><g><path d="M 3.3125 -5.90625 C 3.851562 -5.90625 4.304688 -5.78125 4.671875 -5.53125 C 5.046875 -5.289062 5.328125 -4.941406 5.515625 -4.484375 C 5.703125 -4.035156 5.796875 -3.507812 5.796875 -2.90625 C 5.796875 -2.3125 5.695312 -1.785156 5.5 -1.328125 C 5.3125 -0.878906 5.03125 -0.523438 4.65625 -0.265625 C 4.289062 -0.00390625 3.835938 0.125 3.296875 0.125 C 2.753906 0.125 2.296875 0 1.921875 -0.25 C 1.554688 -0.5 1.28125 -0.847656 1.09375 -1.296875 C 0.90625 -1.753906 0.8125 -2.285156 0.8125 -2.890625 C 0.8125 -3.484375 0.90625 -4.003906 1.09375 -4.453125 C 1.28125 -4.910156 1.5625 -5.265625 1.9375 -5.515625 C 2.3125 -5.773438 2.769531 -5.90625 3.3125 -5.90625 Z M 3.3125 -5.15625 C 2.8125 -5.15625 2.429688 -4.96875 2.171875 -4.59375 C 1.921875 -4.226562 1.796875 -3.660156 1.796875 -2.890625 C 1.796875 -2.128906 1.921875 -1.5625 2.171875 -1.1875 C 2.421875 -0.8125 2.796875 -0.625 3.296875 -0.625 C 3.796875 -0.625 4.171875 -0.8125 4.421875 -1.1875 C 4.671875 -1.5625 4.796875 -2.132812 4.796875 -2.90625 C 4.796875 -3.664062 4.671875 -4.226562 4.421875 -4.59375 C 4.171875 -4.96875 3.800781 -5.15625 3.3125 -5.15625 Z M 3.3125 -5.15625 "/></g></g></g><g fill="#ffffff" fill-opacity="1"><g transform="translate(192.129263, 299.703554)"><g><path d="M 3.359375 -8.125 L 3.359375 -1.4375 C 3.359375 -1.144531 3.445312 -0.9375 3.625 -0.8125 C 3.800781 -0.695312 4.03125 -0.640625 4.3125 -0.640625 C 4.488281 -0.640625 4.65625 -0.65625 4.8125 -0.6875 C 4.96875 -0.726562 5.128906 -0.78125 5.296875 -0.84375 L 5.53125 -0.171875 C 5.375 -0.0976562 5.179688 -0.03125 4.953125 0.03125 C 4.722656 0.09375 4.457031 0.125 4.15625 0.125 C 3.644531 0.125 3.226562 -0.015625 2.90625 -0.296875 C 2.59375 -0.578125 2.4375 -0.972656 2.4375 -1.484375 L 2.4375 -7.390625 L 0.65625 -7.390625 L 0.65625 -8.125 Z M 3.359375 -8.125 "/></g></g></g><g fill="#ffffff" fill-opacity="1"><g transform="translate(198.728143, 299.703554)"><g><path d="M 3.3125 -5.90625 C 3.851562 -5.90625 4.304688 -5.78125 4.671875 -5.53125 C 5.046875 -5.289062 5.328125 -4.941406 5.515625 -4.484375 C 5.703125 -4.035156 5.796875 -3.507812 5.796875 -2.90625 C 5.796875 -2.3125 5.695312 -1.785156 5.5 -1.328125 C 5.3125 -0.878906 5.03125 -0.523438 4.65625 -0.265625 C 4.289062 -0.00390625 3.835938 0.125 3.296875 0.125 C 2.753906 0.125 2.296875 0 1.921875 -0.25 C 1.554688 -0.5 1.28125 -0.847656 1.09375 -1.296875 C 0.90625 -1.753906 0.8125 -2.285156 0.8125 -2.890625 C 0.8125 -3.484375 0.90625 -4.003906 1.09375 -4.453125 C 1.28125 -4.910156 1.5625 -5.265625 1.9375 -5.515625 C 2.3125 -5.773438 2.769531 -5.90625 3.3125 -5.90625 Z M 3.3125 -5.15625 C 2.8125 -5.15625 2.429688 -4.96875 2.171875 -4.59375 C 1.921875 -4.226562 1.796875 -3.660156 1.796875 -2.890625 C 1.796875 -2.128906 1.921875 -1.5625 2.171875 -1.1875 C 2.421875 -0.8125 2.796875 -0.625 3.296875 -0.625 C 3.796875 -0.625 4.171875 -0.8125 4.421875 -1.1875 C 4.671875 -1.5625 4.796875 -2.132812 4.796875 -2.90625 C 4.796875 -3.664062 4.671875 -4.226562 4.421875 -4.59375 C 4.171875 -4.96875 3.800781 -5.15625 3.3125 -5.15625 Z M 3.3125 -5.15625 "/></g></g></g><g fill="#ffffff" fill-opacity="1"><g transform="translate(205.327023, 299.703554)"><g><path d="M 5.8125 -6.40625 L 6.09375 -5.53125 C 5.851562 -5.457031 5.59375 -5.410156 5.3125 -5.390625 C 5.03125 -5.378906 4.726562 -5.375 4.40625 -5.375 C 4.738281 -5.21875 4.988281 -5.015625 5.15625 -4.765625 C 5.320312 -4.523438 5.40625 -4.238281 5.40625 -3.90625 C 5.40625 -3.53125 5.316406 -3.191406 5.140625 -2.890625 C 4.972656 -2.597656 4.726562 -2.363281 4.40625 -2.1875 C 4.082031 -2.019531 3.691406 -1.9375 3.234375 -1.9375 C 3.035156 -1.9375 2.867188 -1.945312 2.734375 -1.96875 C 2.609375 -1.988281 2.488281 -2.015625 2.375 -2.046875 C 2.28125 -1.992188 2.203125 -1.914062 2.140625 -1.8125 C 2.085938 -1.707031 2.0625 -1.597656 2.0625 -1.484375 C 2.0625 -1.347656 2.113281 -1.234375 2.21875 -1.140625 C 2.332031 -1.046875 2.539062 -1 2.84375 -1 L 3.890625 -1 C 4.273438 -1 4.625 -0.929688 4.9375 -0.796875 C 5.25 -0.660156 5.492188 -0.472656 5.671875 -0.234375 C 5.847656 -0.00390625 5.9375 0.257812 5.9375 0.5625 C 5.9375 1.132812 5.691406 1.570312 5.203125 1.875 C 4.722656 2.175781 4.046875 2.328125 3.171875 2.328125 C 2.554688 2.328125 2.066406 2.265625 1.703125 2.140625 C 1.347656 2.015625 1.09375 1.820312 0.9375 1.5625 C 0.789062 1.300781 0.71875 0.976562 0.71875 0.59375 L 1.5625 0.59375 C 1.5625 0.8125 1.601562 0.992188 1.6875 1.140625 C 1.78125 1.285156 1.941406 1.394531 2.171875 1.46875 C 2.398438 1.539062 2.726562 1.578125 3.15625 1.578125 C 3.582031 1.578125 3.929688 1.539062 4.203125 1.46875 C 4.472656 1.394531 4.671875 1.285156 4.796875 1.140625 C 4.929688 1.003906 5 0.832031 5 0.625 C 5 0.351562 4.875 0.144531 4.625 0 C 4.375 -0.132812 4.0625 -0.203125 3.6875 -0.203125 L 2.65625 -0.203125 C 2.15625 -0.203125 1.785156 -0.3125 1.546875 -0.53125 C 1.316406 -0.75 1.203125 -1.003906 1.203125 -1.296875 C 1.203125 -1.484375 1.253906 -1.660156 1.359375 -1.828125 C 1.472656 -2.003906 1.632812 -2.160156 1.84375 -2.296875 C 1.507812 -2.472656 1.257812 -2.691406 1.09375 -2.953125 C 0.9375 -3.210938 0.859375 -3.53125 0.859375 -3.90625 C 0.859375 -4.300781 0.957031 -4.648438 1.15625 -4.953125 C 1.351562 -5.253906 1.625 -5.488281 1.96875 -5.65625 C 2.3125 -5.832031 2.710938 -5.921875 3.171875 -5.921875 C 3.660156 -5.921875 4.054688 -5.941406 4.359375 -5.984375 C 4.660156 -6.023438 4.921875 -6.082031 5.140625 -6.15625 C 5.359375 -6.226562 5.582031 -6.3125 5.8125 -6.40625 Z M 3.171875 -5.234375 C 2.703125 -5.234375 2.359375 -5.109375 2.140625 -4.859375 C 1.921875 -4.609375 1.8125 -4.289062 1.8125 -3.90625 C 1.8125 -3.507812 1.921875 -3.1875 2.140625 -2.9375 C 2.367188 -2.6875 2.722656 -2.5625 3.203125 -2.5625 C 3.609375 -2.5625 3.914062 -2.675781 4.125 -2.90625 C 4.34375 -3.144531 4.453125 -3.476562 4.453125 -3.90625 C 4.453125 -4.34375 4.34375 -4.671875 4.125 -4.890625 C 3.914062 -5.117188 3.597656 -5.234375 3.171875 -5.234375 Z M 3.171875 -5.234375 "/></g></g></g><g fill="#ffffff" fill-opacity="1"><g transform="translate(211.925904, 299.703554)"><g><path d="M 4.03125 -5.796875 L 4.03125 -0.734375 L 5.671875 -0.734375 L 5.671875 0 L 1.328125 0 L 1.328125 -0.734375 L 3.109375 -0.734375 L 3.109375 -5.0625 L 1.375 -5.0625 L 1.375 -5.796875 Z M 3.296875 -8.5 C 3.503906 -8.5 3.664062 -8.4375 3.78125 -8.3125 C 3.90625 -8.1875 3.96875 -8.035156 3.96875 -7.859375 C 3.96875 -7.671875 3.90625 -7.515625 3.78125 -7.390625 C 3.664062 -7.265625 3.503906 -7.203125 3.296875 -7.203125 C 3.109375 -7.203125 2.953125 -7.265625 2.828125 -7.390625 C 2.703125 -7.515625 2.640625 -7.671875 2.640625 -7.859375 C 2.640625 -8.035156 2.703125 -8.1875 2.828125 -8.3125 C 2.953125 -8.4375 3.109375 -8.5 3.296875 -8.5 Z M 3.296875 -8.5 "/></g></g></g><g fill="#ffffff" fill-opacity="1"><g transform="translate(218.524784, 299.703554)"><g><path d="M 5.25 -1.265625 C 5.25 -1.035156 5.285156 -0.863281 5.359375 -0.75 C 5.441406 -0.644531 5.5625 -0.566406 5.71875 -0.515625 L 5.5 0.125 C 5.25 0.09375 5.03125 0.015625 4.84375 -0.109375 C 4.65625 -0.234375 4.519531 -0.425781 4.4375 -0.6875 C 4.226562 -0.414062 3.96875 -0.210938 3.65625 -0.078125 C 3.34375 0.0546875 3 0.125 2.625 0.125 C 2.039062 0.125 1.582031 -0.0351562 1.25 -0.359375 C 0.914062 -0.691406 0.75 -1.125 0.75 -1.65625 C 0.75 -2.257812 0.984375 -2.71875 1.453125 -3.03125 C 1.921875 -3.351562 2.59375 -3.515625 3.46875 -3.515625 L 4.328125 -3.515625 L 4.328125 -4 C 4.328125 -4.414062 4.203125 -4.707031 3.953125 -4.875 C 3.710938 -5.050781 3.375 -5.140625 2.9375 -5.140625 C 2.75 -5.140625 2.523438 -5.117188 2.265625 -5.078125 C 2.015625 -5.035156 1.738281 -4.957031 1.4375 -4.84375 L 1.1875 -5.546875 C 1.550781 -5.679688 1.882812 -5.773438 2.1875 -5.828125 C 2.5 -5.878906 2.796875 -5.90625 3.078125 -5.90625 C 3.804688 -5.90625 4.347656 -5.738281 4.703125 -5.40625 C 5.066406 -5.070312 5.25 -4.617188 5.25 -4.046875 Z M 2.859375 -0.578125 C 3.140625 -0.578125 3.410156 -0.648438 3.671875 -0.796875 C 3.929688 -0.941406 4.148438 -1.140625 4.328125 -1.390625 L 4.328125 -2.890625 L 3.484375 -2.890625 C 2.847656 -2.890625 2.398438 -2.78125 2.140625 -2.5625 C 1.878906 -2.34375 1.75 -2.046875 1.75 -1.671875 C 1.75 -1.316406 1.835938 -1.046875 2.015625 -0.859375 C 2.203125 -0.671875 2.484375 -0.578125 2.859375 -0.578125 Z M 2.859375 -0.578125 "/></g></g></g></svg>