<svg xmlns="http://www.w3.org/2000/svg" xmlns:xlink="http://www.w3.org/1999/xlink" width="500" zoomAndPan="magnify" viewBox="0 0 375 374.999991" height="500" preserveAspectRatio="xMidYMid meet" version="1.0"><defs><clipPath id="67ddb0e49b"><path d="M 37.5 37.5 L 337.5 37.5 L 337.5 337.5 L 37.5 337.5 Z M 37.5 37.5 " clip-rule="nonzero"/></clipPath><clipPath id="bbbfd28b4e"><path d="M 187.5 37.5 C 104.65625 37.5 37.5 104.65625 37.5 187.5 C 37.5 270.34375 104.65625 337.5 187.5 337.5 C 270.34375 337.5 337.5 270.34375 337.5 187.5 C 337.5 104.65625 270.34375 37.5 187.5 37.5 Z M 187.5 37.5 " clip-rule="nonzero"/></clipPath><clipPath id="03d07d0424"><path d="M 89.820312 92.503906 L 284.820312 92.503906 L 284.820312 282.253906 L 89.820312 282.253906 Z M 89.820312 92.503906 " clip-rule="nonzero"/></clipPath><clipPath id="85b6a3bb87"><path d="M 107.402344 102.273438 L 277.652344 102.273438 L 277.652344 272.523438 L 107.402344 272.523438 Z M 107.402344 102.273438 " clip-rule="nonzero"/></clipPath></defs><rect x="-37.5" width="450" fill="#ffffff" y="-37.499999" height="449.999989" fill-opacity="1"/><rect x="-37.5" width="450" fill="#ffffff" y="-37.499999" height="449.999989" fill-opacity="1"/><g clip-path="url(#67ddb0e49b)"><g clip-path="url(#bbbfd28b4e)"><path fill="#0f172a" d="M 37.5 37.5 L 337.5 37.5 L 337.5 337.5 L 37.5 337.5 Z M 37.5 37.5 " fill-opacity="1" fill-rule="nonzero"/></g></g><g clip-path="url(#03d07d0424)"><path fill="#bef264" d="M 284.980469 194.316406 C 284.980469 193.570312 284.890625 192.832031 284.882812 192.089844 C 284.875 191.347656 284.917969 190.597656 284.898438 189.855469 C 284.882812 189.109375 284.863281 188.363281 284.835938 187.625 C 284.808594 186.878906 284.691406 186.136719 284.65625 185.402344 C 284.621094 184.664062 284.519531 183.914062 284.472656 183.175781 C 284.421875 182.429688 284.40625 181.6875 284.347656 180.949219 C 284.289062 180.203125 284.167969 179.46875 284.101562 178.730469 C 284.03125 177.984375 284.15625 177.226562 284.078125 176.488281 C 283.996094 175.746094 283.851562 175.011719 283.761719 174.277344 C 283.671875 173.539062 283.609375 172.792969 283.507812 172.058594 C 283.40625 171.320312 283.253906 170.589844 283.140625 169.859375 C 283.03125 169.121094 282.863281 168.394531 282.734375 167.667969 C 282.609375 166.929688 282.527344 166.191406 282.390625 165.460938 C 282.257812 164.734375 282.175781 163.984375 282.023438 163.261719 C 281.867188 162.527344 281.496094 161.851562 281.335938 161.128906 C 281.171875 160.402344 281.0625 159.664062 280.890625 158.945312 C 280.71875 158.226562 280.675781 157.464844 280.488281 156.746094 C 280.300781 156.023438 279.960938 155.34375 279.757812 154.632812 C 279.554688 153.914062 279.445312 153.175781 279.222656 152.464844 C 279.003906 151.753906 278.660156 151.082031 278.429688 150.378906 C 278.199219 149.671875 278.054688 148.929688 277.804688 148.234375 C 277.558594 147.53125 277.171875 146.878906 276.910156 146.1875 C 276.648438 145.488281 276.539062 144.734375 276.257812 144.046875 C 275.980469 143.355469 275.667969 142.675781 275.375 142 C 275.082031 141.320312 274.71875 140.660156 274.410156 139.988281 C 274.097656 139.308594 273.886719 138.585938 273.566406 137.921875 C 273.246094 137.257812 272.769531 136.652344 272.433594 135.996094 C 272.089844 135.332031 271.816406 134.636719 271.460938 133.988281 C 271.101562 133.332031 270.65625 132.730469 270.28125 132.09375 C 269.90625 131.457031 269.496094 130.832031 269.105469 130.199219 C 268.710938 129.566406 268.371094 128.90625 267.960938 128.289062 C 267.554688 127.667969 267.148438 127.039062 266.722656 126.433594 C 266.300781 125.828125 265.960938 125.152344 265.519531 124.554688 C 265.074219 123.957031 264.589844 123.382812 264.136719 122.800781 C 263.679688 122.21875 263.195312 121.644531 262.71875 121.074219 C 262.246094 120.5 261.808594 119.894531 261.320312 119.335938 C 260.832031 118.773438 260.175781 118.363281 259.671875 117.820312 C 259.164062 117.277344 258.789062 116.605469 258.269531 116.078125 C 257.75 115.546875 257.175781 115.066406 256.636719 114.554688 C 256.101562 114.042969 255.539062 113.550781 254.988281 113.054688 C 254.4375 112.558594 253.894531 112.046875 253.324219 111.566406 C 252.753906 111.089844 252.183594 110.613281 251.601562 110.152344 C 251.019531 109.691406 250.371094 109.320312 249.773438 108.878906 C 249.175781 108.433594 248.660156 107.878906 248.054688 107.449219 C 247.449219 107.023438 246.816406 106.628906 246.195312 106.214844 C 245.574219 105.808594 244.90625 105.472656 244.273438 105.078125 C 243.640625 104.683594 243.011719 104.296875 242.367188 103.925781 C 241.71875 103.554688 241.019531 103.292969 240.363281 102.941406 C 239.714844 102.585938 239.085938 102.183594 238.421875 101.851562 C 237.757812 101.515625 237.085938 101.203125 236.410156 100.886719 C 235.730469 100.570312 235.082031 100.222656 234.398438 99.925781 C 233.714844 99.628906 233.015625 99.382812 232.324219 99.109375 C 231.636719 98.832031 230.945312 98.566406 230.246094 98.308594 C 229.550781 98.050781 228.875 97.738281 228.167969 97.5 C 227.464844 97.257812 226.765625 97.011719 226.050781 96.789062 C 225.347656 96.566406 224.621094 96.394531 223.902344 96.191406 C 223.183594 95.988281 222.4375 95.925781 221.714844 95.742188 C 220.996094 95.554688 220.316406 95.210938 219.589844 95.046875 C 218.867188 94.878906 218.117188 94.851562 217.382812 94.703125 C 216.660156 94.550781 215.925781 94.441406 215.191406 94.308594 C 214.464844 94.175781 213.761719 93.886719 213.023438 93.769531 C 212.285156 93.652344 211.558594 93.53125 210.816406 93.425781 C 210.085938 93.328125 209.332031 93.355469 208.589844 93.269531 C 207.847656 93.183594 207.125 93.035156 206.378906 92.964844 C 205.644531 92.898438 204.898438 92.890625 204.152344 92.835938 C 203.414062 92.78125 202.679688 92.648438 201.933594 92.609375 C 201.1875 92.570312 200.445312 92.609375 199.699219 92.585938 C 198.957031 92.5625 198.21875 92.636719 197.472656 92.621094 C 196.726562 92.609375 195.992188 92.550781 195.246094 92.550781 C 194.5 92.550781 193.761719 92.496094 193.015625 92.515625 C 192.277344 92.527344 191.535156 92.613281 190.789062 92.640625 C 190.042969 92.667969 189.3125 92.730469 188.566406 92.773438 C 187.828125 92.8125 187.078125 92.714844 186.332031 92.765625 C 185.597656 92.820312 184.859375 92.976562 184.117188 93.039062 C 183.378906 93.101562 182.65625 93.273438 181.910156 93.351562 C 181.171875 93.425781 180.421875 93.394531 179.679688 93.480469 C 178.941406 93.566406 178.21875 93.722656 177.476562 93.820312 C 176.734375 93.917969 175.988281 93.886719 175.25 93.996094 C 174.515625 94.105469 173.804688 94.375 173.070312 94.5 C 172.335938 94.617188 171.601562 94.714844 170.863281 94.839844 C 170.128906 94.96875 169.382812 94.972656 168.644531 95.113281 C 167.917969 95.25 167.203125 95.480469 166.472656 95.628906 C 165.746094 95.773438 165.003906 95.859375 164.269531 96.015625 C 163.546875 96.203125 162.84375 96.472656 162.117188 96.671875 C 161.398438 96.867188 160.675781 97.066406 159.945312 97.269531 C 159.21875 97.472656 158.515625 97.703125 157.789062 97.914062 C 157.070312 98.121094 156.328125 98.234375 155.609375 98.457031 C 154.890625 98.679688 154.210938 99.007812 153.492188 99.234375 C 152.777344 99.460938 152.046875 99.632812 151.335938 99.871094 C 150.628906 100.109375 149.894531 100.292969 149.1875 100.535156 C 148.476562 100.78125 147.800781 101.109375 147.09375 101.363281 C 146.390625 101.617188 145.710938 101.9375 145.007812 102.199219 C 144.304688 102.460938 143.546875 102.578125 142.847656 102.847656 C 142.148438 103.121094 141.488281 103.5 140.796875 103.785156 C 140.101562 104.066406 139.371094 104.25 138.679688 104.542969 C 137.988281 104.839844 137.332031 105.207031 136.644531 105.511719 C 135.957031 105.8125 135.28125 106.128906 134.597656 106.441406 C 133.917969 106.753906 133.199219 106.988281 132.523438 107.316406 C 131.847656 107.640625 131.226562 108.078125 130.558594 108.417969 C 129.890625 108.757812 129.242188 109.136719 128.578125 109.484375 C 127.914062 109.832031 127.253906 110.1875 126.597656 110.550781 C 125.945312 110.910156 125.269531 111.25 124.625 111.625 C 123.972656 112 123.265625 112.273438 122.621094 112.660156 C 121.980469 113.050781 121.40625 113.546875 120.773438 113.953125 C 120.140625 114.359375 119.464844 114.695312 118.84375 115.113281 C 118.222656 115.535156 117.703125 116.101562 117.089844 116.527344 C 116.476562 116.960938 115.765625 117.261719 115.171875 117.714844 C 114.574219 118.164062 114.015625 118.671875 113.425781 119.136719 C 112.839844 119.601562 112.324219 120.15625 111.75 120.636719 C 111.175781 121.117188 110.570312 121.5625 110.011719 122.058594 C 109.449219 122.5625 108.925781 123.09375 108.382812 123.609375 C 107.839844 124.125 107.222656 124.570312 106.699219 125.101562 C 106.167969 125.636719 105.625 126.160156 105.121094 126.707031 C 104.609375 127.257812 104.179688 127.882812 103.691406 128.445312 C 103.203125 129.011719 102.660156 129.539062 102.191406 130.121094 C 101.722656 130.707031 101.363281 131.375 100.917969 131.980469 C 100.46875 132.585938 100 133.164062 99.574219 133.78125 C 99.148438 134.402344 98.800781 135.066406 98.40625 135.699219 C 98.007812 136.332031 97.558594 136.9375 97.1875 137.589844 C 96.820312 138.238281 96.492188 138.914062 96.148438 139.582031 C 95.804688 140.25 95.382812 140.875 95.066406 141.554688 C 94.75 142.238281 94.417969 142.910156 94.132812 143.609375 C 93.847656 144.304688 93.703125 145.042969 93.441406 145.753906 C 93.179688 146.464844 92.828125 147.125 92.597656 147.84375 C 92.371094 148.550781 92.304688 149.316406 92.105469 150.042969 C 91.910156 150.761719 91.699219 151.480469 91.53125 152.214844 C 91.363281 152.953125 91.1875 153.667969 91.050781 154.414062 C 90.917969 155.160156 90.660156 155.863281 90.550781 156.613281 C 90.441406 157.363281 90.398438 158.105469 90.316406 158.855469 C 90.246094 159.59375 90.175781 160.335938 90.125 161.078125 C 90.070312 161.820312 90.140625 162.570312 90.097656 163.3125 C 90.058594 164.050781 90.074219 164.796875 90.050781 165.542969 C 90.023438 166.285156 89.964844 167.027344 89.949219 167.769531 C 89.9375 168.511719 89.9375 169.257812 89.929688 170.003906 C 89.929688 170.746094 89.859375 171.492188 89.867188 172.238281 C 89.878906 172.980469 89.894531 173.722656 89.917969 174.46875 C 89.941406 175.210938 90.054688 175.949219 90.089844 176.695312 C 90.121094 177.4375 90.15625 178.179688 90.203125 178.925781 C 90.246094 179.664062 90.238281 180.410156 90.292969 181.152344 C 90.351562 181.894531 90.34375 182.640625 90.414062 183.378906 C 90.484375 184.121094 90.519531 184.867188 90.601562 185.605469 C 90.679688 186.339844 90.871094 187.066406 90.960938 187.808594 C 91.050781 188.546875 91.152344 189.28125 91.253906 190.023438 C 91.359375 190.765625 91.550781 191.484375 91.664062 192.21875 C 91.773438 192.957031 91.734375 193.714844 91.855469 194.449219 C 91.976562 195.179688 92.160156 195.90625 92.292969 196.640625 C 92.429688 197.371094 92.519531 198.113281 92.664062 198.839844 C 92.808594 199.566406 93.089844 200.273438 93.242188 201 C 93.398438 201.726562 93.441406 202.484375 93.609375 203.207031 C 93.777344 203.929688 93.953125 204.652344 94.132812 205.375 C 94.316406 206.097656 94.664062 206.777344 94.851562 207.496094 C 95.042969 208.214844 95.128906 208.957031 95.328125 209.675781 C 95.527344 210.394531 95.671875 211.128906 95.882812 211.84375 C 96.09375 212.554688 96.480469 213.214844 96.699219 213.925781 C 96.921875 214.636719 97.070312 215.367188 97.304688 216.078125 C 97.542969 216.785156 97.828125 217.46875 98.070312 218.171875 C 98.3125 218.878906 98.457031 219.613281 98.714844 220.3125 C 98.972656 221.007812 99.3125 221.675781 99.578125 222.371094 C 99.847656 223.066406 100.082031 223.773438 100.355469 224.464844 C 100.636719 225.15625 101.015625 225.800781 101.304688 226.488281 C 101.59375 227.175781 101.863281 227.867188 102.164062 228.550781 C 102.46875 229.230469 102.773438 229.90625 103.085938 230.582031 C 103.398438 231.261719 103.679688 231.949219 104.003906 232.617188 C 104.328125 233.285156 104.664062 233.949219 105 234.613281 C 105.332031 235.277344 105.730469 235.910156 106.078125 236.566406 C 106.425781 237.226562 106.636719 237.953125 106.996094 238.605469 C 107.355469 239.253906 107.699219 239.917969 108.070312 240.5625 C 108.441406 241.207031 108.933594 241.78125 109.320312 242.417969 C 109.703125 243.054688 109.964844 243.769531 110.359375 244.398438 C 110.75 245.027344 111.238281 245.601562 111.644531 246.222656 C 112.050781 246.847656 112.4375 247.488281 112.851562 248.097656 C 113.269531 248.710938 113.714844 249.308594 114.148438 249.914062 C 114.582031 250.519531 115.085938 251.078125 115.527344 251.671875 C 115.96875 252.269531 116.453125 252.835938 116.910156 253.421875 C 117.367188 254.011719 117.796875 254.621094 118.261719 255.195312 C 118.730469 255.773438 119.191406 256.351562 119.675781 256.921875 C 120.160156 257.484375 120.601562 258.085938 121.09375 258.640625 C 121.59375 259.199219 122.128906 259.714844 122.636719 260.253906 C 123.140625 260.796875 123.683594 261.3125 124.203125 261.839844 C 124.722656 262.371094 125.195312 262.957031 125.726562 263.472656 C 126.261719 263.992188 126.785156 264.523438 127.332031 265.023438 C 127.878906 265.523438 128.484375 265.964844 129.042969 266.453125 C 129.65625 266.886719 130.277344 267.292969 130.90625 267.699219 C 131.535156 268.105469 132.082031 268.644531 132.722656 269.027344 C 133.363281 269.410156 134.109375 269.621094 134.765625 269.972656 C 135.425781 270.328125 136.089844 270.664062 136.757812 270.992188 C 137.433594 271.324219 138.082031 271.695312 138.761719 272 C 139.4375 272.308594 140.101562 272.664062 140.792969 272.953125 C 141.484375 273.242188 142.160156 273.582031 142.859375 273.84375 C 143.558594 274.105469 144.320312 274.203125 145.027344 274.445312 C 145.734375 274.691406 146.398438 275.074219 147.105469 275.300781 C 147.820312 275.527344 148.582031 275.597656 149.300781 275.804688 C 150.019531 276.015625 150.742188 276.199219 151.464844 276.394531 C 152.1875 276.585938 152.878906 276.898438 153.601562 277.085938 C 154.324219 277.269531 155.050781 277.445312 155.785156 277.617188 C 156.511719 277.789062 157.265625 277.847656 158 278.011719 C 158.730469 278.175781 159.425781 278.5 160.152344 278.652344 C 160.886719 278.804688 161.660156 278.761719 162.390625 278.910156 C 163.125 279.058594 163.851562 279.242188 164.585938 279.386719 C 165.324219 279.53125 166.046875 279.714844 166.785156 279.855469 C 167.519531 279.996094 168.253906 280.144531 168.988281 280.28125 C 169.726562 280.414062 170.457031 280.570312 171.191406 280.703125 C 171.925781 280.839844 172.671875 280.925781 173.402344 281.066406 C 174.140625 281.214844 174.886719 281.296875 175.628906 281.421875 C 176.367188 281.550781 177.105469 281.683594 177.851562 281.785156 C 178.597656 281.882812 179.332031 282.023438 180.082031 282.101562 C 180.828125 282.179688 181.578125 282.25 182.328125 282.304688 C 183.078125 282.359375 183.828125 282.414062 184.578125 282.445312 C 185.332031 282.476562 186.082031 282.445312 186.835938 282.457031 C 187.585938 282.46875 188.335938 282.394531 189.085938 282.382812 C 189.835938 282.367188 190.585938 282.402344 191.335938 282.367188 C 192.085938 282.332031 192.84375 282.441406 193.597656 282.382812 C 194.347656 282.324219 195.097656 282.25 195.839844 282.171875 C 196.585938 282.097656 197.308594 281.804688 198.054688 281.707031 C 198.800781 281.609375 199.546875 281.550781 200.292969 281.433594 C 201.039062 281.316406 201.792969 281.28125 202.53125 281.144531 C 203.265625 281.003906 203.996094 280.796875 204.726562 280.636719 C 205.457031 280.480469 206.21875 280.414062 206.945312 280.234375 C 207.671875 280.054688 208.402344 279.851562 209.125 279.65625 C 209.847656 279.460938 210.554688 279.199219 211.277344 278.988281 C 211.996094 278.773438 212.714844 278.554688 213.429688 278.324219 C 214.144531 278.09375 214.847656 277.832031 215.558594 277.582031 C 216.269531 277.332031 216.957031 277.027344 217.65625 276.765625 C 218.359375 276.496094 219.097656 276.320312 219.792969 276.039062 C 220.488281 275.761719 221.203125 275.511719 221.890625 275.214844 C 222.582031 274.914062 223.246094 274.5625 223.929688 274.25 C 224.609375 273.941406 225.246094 273.53125 225.925781 273.203125 C 226.601562 272.871094 227.28125 272.5625 227.949219 272.214844 C 228.617188 271.871094 229.335938 271.625 229.996094 271.265625 C 230.65625 270.902344 231.25 270.429688 231.90625 270.054688 C 232.554688 269.679688 233.191406 269.285156 233.839844 268.894531 C 234.484375 268.507812 235.195312 268.238281 235.832031 267.835938 C 236.464844 267.433594 237.019531 266.90625 237.644531 266.488281 C 238.265625 266.070312 238.945312 265.726562 239.558594 265.300781 C 240.175781 264.878906 240.714844 264.359375 241.324219 263.9375 C 241.929688 263.519531 242.644531 263.242188 243.253906 262.816406 C 243.859375 262.394531 244.445312 261.933594 245.046875 261.503906 C 245.652344 261.074219 246.1875 260.550781 246.785156 260.117188 C 247.386719 259.679688 248.007812 259.265625 248.597656 258.828125 C 249.199219 258.390625 249.851562 258.019531 250.4375 257.574219 C 251.035156 257.128906 251.542969 256.582031 252.132812 256.128906 C 252.71875 255.675781 253.351562 255.28125 253.929688 254.820312 C 254.507812 254.359375 255.050781 253.84375 255.625 253.378906 C 256.199219 252.910156 256.832031 252.507812 257.402344 252.035156 C 257.972656 251.554688 258.457031 250.992188 259.019531 250.507812 C 259.578125 250.023438 260.210938 249.617188 260.761719 249.125 C 261.316406 248.628906 261.875 248.140625 262.417969 247.632812 C 262.960938 247.128906 263.511719 246.625 264.039062 246.109375 C 264.574219 245.589844 265.023438 245 265.542969 244.46875 C 266.066406 243.941406 266.636719 243.460938 267.144531 242.925781 C 267.65625 242.382812 268.199219 241.871094 268.691406 241.320312 C 269.183594 240.769531 269.542969 240.09375 270.023438 239.53125 C 270.503906 238.964844 270.941406 238.371094 271.402344 237.789062 C 271.863281 237.207031 272.328125 236.632812 272.769531 236.042969 C 273.214844 235.449219 273.757812 234.925781 274.179688 234.320312 C 274.605469 233.714844 275.046875 233.117188 275.457031 232.496094 C 275.863281 231.875 276.113281 231.15625 276.5 230.523438 C 276.882812 229.890625 277.289062 229.273438 277.652344 228.625 C 278.011719 227.980469 278.496094 227.398438 278.832031 226.734375 C 279.164062 226.066406 279.316406 225.324219 279.625 224.648438 C 279.9375 223.976562 280.316406 223.339844 280.601562 222.652344 C 280.886719 221.964844 281.082031 221.25 281.339844 220.554688 C 281.597656 219.859375 281.8125 219.160156 282.042969 218.449219 C 282.273438 217.738281 282.59375 217.074219 282.800781 216.355469 C 283.003906 215.648438 283.277344 214.953125 283.453125 214.226562 C 283.625 213.515625 283.613281 212.75 283.761719 212.019531 C 283.910156 211.285156 284.203125 210.597656 284.328125 209.863281 C 284.445312 209.136719 284.445312 208.390625 284.535156 207.648438 C 284.625 206.921875 284.738281 206.183594 284.804688 205.441406 C 284.875 204.703125 284.898438 203.96875 284.941406 203.222656 C 284.980469 202.492188 285.070312 201.75 285.089844 201.003906 C 285.105469 200.273438 285.027344 199.53125 285.019531 198.78125 C 285.007812 198.050781 285.09375 197.304688 285.0625 196.554688 C 285.03125 195.820312 285.011719 195.082031 284.964844 194.332031 Z M 284.980469 194.316406 " fill-opacity="1" fill-rule="nonzero"/></g><g clip-path="url(#85b6a3bb87)"><path stroke-linecap="butt" transform="matrix(0.75, 0, 0, 0.75, 107.401917, 102.273963)" fill="none" stroke-linejoin="miter" d="M 0.000568404 -0.000700512 L 227.266208 -0.000700512 L 227.266208 227.264939 L 0.000568404 227.264939 Z M 0.000568404 -0.000700512 " stroke="#0f172a" stroke-width="16" stroke-opacity="1" stroke-miterlimit="4"/></g><path stroke-linecap="butt" transform="matrix(1.110852, 0, 0, 1.110852, 154.313798, 168.691731)" fill="none" stroke-linejoin="miter" d="M 6.908645 24.523389 L 6.908645 76.000614 L 40.146075 76.000614 L 41.415511 66.390172 L 19.093124 66.390172 L 19.093124 24.523389 Z M 59.191136 64.902717 L 74.259099 64.902717 L 76.980827 76.000614 L 90.016285 76.000614 L 74.259099 24.523389 L 59.483001 24.523389 L 43.743397 76.000614 L 56.472925 76.000614 Z M 72.265275 56.055343 L 61.114631 56.055343 L 66.698744 33.296917 Z M 72.265275 56.055343 " stroke="#0f172a" stroke-width="2.785391" stroke-opacity="1" stroke-miterlimit="4"/></svg>